<?xml version="1.0" standalone="no"?><!DOCTYPE svg PUBLIC "-//W3C//DTD SVG 1.1//EN" "http://www.w3.org/Graphics/SVG/1.1/DTD/svg11.dtd"><svg width="16" height="16" viewBox="0 0 16 16" version="1.1" xmlns="http://www.w3.org/2000/svg" xmlns:xlink="http://www.w3.org/1999/xlink"><defs><style type="text/css"><![CDATA[
@font-face { font-family: ifont; src: url("//at.alicdn.com/t/font_1442373896_4754455.eot?#iefix") format("embedded-opentype"), url("//at.alicdn.com/t/font_1442373896_4754455.woff") format("woff"), url("//at.alicdn.com/t/font_1442373896_4754455.ttf") format("truetype"), url("//at.alicdn.com/t/font_1442373896_4754455.svg#ifont") format("svg"); }

]]></style></defs><g class="transform-group"><g transform="scale(0.015625, 0.015625)"><path d="M243.227084 1021.287472c-7.223318 0-14.576813-0.430896-22.04333-1.298744-49.339156-5.74394-97.76909-30.165778-136.369137-68.766833-38.601055-38.601055-63.023902-87.031999-68.767843-136.372164-5.948793-51.098061 8.657285-97.120223 41.126896-129.589834l205.303485-205.302476 28.542096 28.542096L85.714757 713.803001c-49.966832 49.967841-37.566702 143.669148 27.640947 208.876797 38.22667 38.227679 86.255982 58.305233 129.516168 58.30826 30.532091 0.002018 58.683655-9.995385 79.357602-30.670341L613.211721 659.337489c23.564081-23.565091 34.068065-57.793607 29.57544-96.380534-4.696468-40.344824-25.016213-80.297097-57.214369-112.495254-29.44829-29.449299-66.102743-49.283654-103.21433-55.85205l7.034611-39.747421c45.184588 7.996308 89.478118 31.810652 124.721814 67.057375 38.601055 38.600046 63.022893 87.03099 68.766833 136.370146 5.949802 51.097052-8.657285 97.119214-41.126896 129.589834L350.77157 978.861832C323.046865 1006.586536 285.436771 1021.286462 243.227084 1021.287472zM532.776373 689.183375c-45.376322-6.809577-90.279363-29.455354-126.436318-63.766618-39.598071-37.579821-65.278288-85.355842-72.31189-134.527483-7.283865-50.923483 6.11328-97.312966 37.723116-130.62116L655.017758 61.770912c31.608827-33.308194 77.235412-49.116139 128.469705-44.503428 49.472361 4.451251 98.525934 27.596546 138.124005 65.173339 39.596053 37.578812 65.277279 85.354833 72.309872 134.526474 7.283865 50.924492-6.11328 97.313975-37.720089 130.62116l-199.8643 210.604419L727.059202 530.407623l199.863291-210.60341c48.639832-51.256494 33.792574-144.602589-33.097287-208.083625C826.935346 48.244598 732.941393 38.301688 684.297524 89.557173L401.030039 388.053366c-48.64286 51.256494-33.795601 144.602589 33.095268 208.083625 30.21018 28.667227 67.372223 47.535849 104.640224 53.128421L532.776373 689.183375z" fill="#0c8d68"></path></g></g></svg>